PathFileType	4	(X/Y/Z)	/Users/visionmauri/2_8_1_f_Sports2D/2_8_1_f_Sports2D_m_person00.trc
DataRate	CameraRate	NumFrames	NumMarkers	Units	OrigDataRate	OrigDataStartFrame	OrigNumFrames
30.0	30.0	11	22	m	30.0	87	350
Frame#	Time	Hip			RHip			RKnee			RAnkle			RBigToe			RSmallToe			RHeel			LHip			LKnee			LAnkle			LBigToe			LSmallToe			LHeel			Neck			Head			Nose			RShoulder			RElbow			RWrist			LShoulder			LElbow			LWrist			
		X1	Y1	Z1	X2	Y2	Z2	X3	Y3	Z3	X4	Y4	Z4	X5	Y5	Z5	X6	Y6	Z6	X7	Y7	Z7	X8	Y8	Z8	X9	Y9	Z9	X10	Y10	Z10	X11	Y11	Z11	X12	Y12	Z12	X13	Y13	Z13	X14	Y14	Z14	X15	Y15	Z15	X16	Y16	Z16	X17	Y17	Z17	X18	Y18	Z18	X19	Y19	Z19	X20	Y20	Z20	X21	Y21	Z21	X22	Y22	Z22
87	2.9083094555873927	0.6679354067263155	0.881418066811878	0.0301	0.7582272068035624	0.8848533437699394	0.0301	0.8609929573070665	0.5359763796659085	0.129	0.9384625041612618	0.22261979113261907	0.023	0.930188151322017	0.20639537937985253	0.2179	0.9926799138799072	0.19913088270711485	0.1804	0.9468232221909756	0.1606261296190924	-0.0119	0.5925702404248417	0.8468941414477972	0.0301	0.637598630425719	0.6936045203744802	0.129	0.676087779641929	0.49919807503580815	0.023	0.6877290693466968	0.5057139605157978	0.2179	0.6483043566209206	0.4784887003240799	0.1804	0.6886868628610662	0.4495808349486634	-0.0119	0.5484100644102766	1.2932962091679183	0.0008	0.45649998726620095	1.4261148900919811	0.0655	0.4962772055925826	1.3411238453036882	0.1076	0.6999104042369858	1.325418990872081	-0.01275	0.8596817269104262	1.2041645562145646	0.0702	0.9380587864385855	0.9928403939254647	0.1076	0.4402210650560056	1.22889040667067	-0.01275	0.40200076813540214	1.022701799542965	0.0702	0.3721415164823254	0.8038680367495014	0.1076
88	2.941738299904489	0.6690629648241668	0.8815432774772479	0.0301	0.7579253750804729	0.8855642460616642	0.0301	0.8605565576818247	0.5369102377240652	0.129	0.9374864805478467	0.22397215061740036	0.023	0.9290592621960326	0.20684109593709493	0.2179	0.9930537689673625	0.20046332358390448	0.1804	0.9459319595595007	0.1615290076777675	-0.0119	0.5938443349188457	0.8467287965306265	0.0301	0.6352499349472452	0.6945289597523128	0.129	0.6740720746005158	0.5082889109852743	0.023	0.6856489066918441	0.5121171801948173	0.2179	0.649540383122604	0.4833429191463812	0.1804	0.6861809755488777	0.4563669232179525	-0.0119	0.5488300167077425	1.2940046239282155	0.0008	0.45168818661514354	1.4236094163151025	0.0655	0.4947331132034699	1.3406354780547451	0.1076	0.7000255708937615	1.325474608092627	-0.01275	0.8648061121889871	1.205651363196679	0.0702	0.9375096078526037	0.9933938529984241	0.1076	0.44109481185899596	1.2290051960859947	-0.01275	0.4050397687692768	1.0189619208962832	0.0702	0.37365245193711255	0.7991645509354358	0.1076
89	2.9751671442215857	0.6703710961871647	0.8818483356080167	0.0301	0.757672055753951	0.8851837150310079	0.0301	0.8602220428481148	0.5381401058650469	0.129	0.9368482785734299	0.2235919385502347	0.023	0.9286983309774921	0.20641385995589742	0.2179	0.9922205096628225	0.20068518881210623	0.1804	0.9443853751737391	0.16298666462014583	-0.0119	0.5947534149083277	0.8480545737223647	0.0301	0.6377031599546943	0.6852575509370495	0.129	0.6712748599607211	0.5145697223947586	0.023	0.6835827174926389	0.5203703951599105	0.2179	0.6458985193768773	0.4928912578948511	0.1804	0.6850405606390348	0.46420883920512845	-0.0119	0.5492899991481888	1.2939120536189699	0.0008	0.4467232534229403	1.417525486520661	0.0655	0.4916699170464455	1.3404455796023826	0.1076	0.7003008126434709	1.3263364188033226	-0.01275	0.869221298484562	1.2066662462174205	0.0702	0.9353804499164147	0.995900911281868	0.1076	0.4421484569296104	1.2304372457240735	-0.01275	0.4070726936514199	1.0132606994319133	0.0702	0.3751565112816832	0.7958823613420314	0.1076
90	3.008595988538682	0.671256240984528	0.8836289609335595	0.0301	0.7577389760761748	0.8848337923554944	0.0301	0.8593965341125485	0.539409051879219	0.129	0.9367708267759199	0.22237238139464327	0.023	0.9295762042531851	0.20618245913486566	0.2179	0.9918071128029292	0.1999206878013879	0.1804	0.9426531291761728	0.16439391864752723	-0.0119	0.5960091018595025	0.8505868973895281	0.0301	0.6436632901173679	0.6665457520612829	0.129	0.6686190889627428	0.5172012073043984	0.023	0.6775977449382228	0.5303211276905812	0.2179	0.637711729950275	0.5077989402848199	0.1804	0.6860437050346987	0.4664367202742273	-0.0119	0.5500859219901525	1.2926799083697087	0.0008	0.44090610365724503	1.409709365646655	0.0655	0.4875084140531343	1.3368620889742047	0.1076	0.7008344982058442	1.3275187830145179	-0.01275	0.8731828082693901	1.2066703990348338	0.0702	0.9309824241848079	1.0000060837418558	0.1076	0.44386153794772903	1.2314831471451273	-0.01275	0.40918373740190894	1.0073619250661596	0.0702	0.3775356071629751	0.7948447579483192	0.1076
91	3.0420248328557786	0.671529218319973	0.8857470689735019	0.0301	0.7581125745041511	0.8840406781870971	0.0301	0.858187609345744	0.5402639234401417	0.129	0.9364256088384423	0.2212713129382731	0.023	0.9308010148252704	0.20663306986681684	0.2179	0.9926593261569433	0.19881613990312114	0.1804	0.9411706090134369	0.16479912116387516	-0.0119	0.5981444331399866	0.8515589272836033	0.0301	0.6507766074281695	0.6379156805443507	0.129	0.665740126652296	0.5230832862945352	0.023	0.6684926968867201	0.5377257710687151	0.2179	0.6301966781151599	0.5219567271319498	0.1804	0.685748182406848	0.47265798699896844	-0.0119	0.5510986732791783	1.290426697979163	0.0008	0.4344204260378992	1.4033996156286737	0.0655	0.4839648348569356	1.3282464286866322	0.1076	0.7015261004483737	1.3278191862771502	-0.01275	0.8768942485473019	1.2056820412476492	0.0702	0.9243453349815933	1.0046161887351757	0.1076	0.4458981261809039	1.229806935696387	-0.01275	0.4122281773433545	1.002827164575605	0.0702	0.3805140593825998	0.794089161226508	0.1076
92	3.075453677172875	0.6726093267731709	0.8847325165176355	0.0301	0.7591636057383467	0.8824717479923186	0.0301	0.8578779460469294	0.5404747371348116	0.129	0.935005052329213	0.22050826677303917	0.023	0.9306432011465591	0.2073927860849194	0.2179	0.9929974968753813	0.1982390181071527	0.1804	0.9400168832343586	0.16457724907298568	-0.0119	0.6003228370271063	0.8503014103550531	0.0301	0.6550703678417278	0.6167850435946747	0.129	0.6643096846264106	0.5338226159466629	0.023	0.6717040780429665	0.5185157439204955	0.2179	0.6361806770571682	0.5053990649597035	0.1804	0.6832037866777786	0.4888143174275165	-0.0119	0.5517960751573762	1.287857502149702	0.0008	0.4297492546841008	1.3992535294207027	0.0655	0.4810896673287592	1.3209149846318877	0.1076	0.7028155485488944	1.3259928208385663	-0.01275	0.8800073564487986	1.2037799578965602	0.0702	0.9161744425529235	1.009003650373162	0.1076	0.44767595611121763	1.226619376765312	-0.01275	0.41576827672775574	0.9994431705098235	0.0702	0.3837720995344438	0.7928867901860036	0.1076
93	3.1088825214899716	0.6753149090838739	0.8798460773977912	0.0301	0.7606916222988898	0.8812899759592792	0.0301	0.8591025022748215	0.540414492030584	0.129	0.9335558276128535	0.2203492436257383	0.023	0.9295501247869332	0.2077586351253509	0.2179	0.9918490714363855	0.19904530230643677	0.1804	0.939571018427467	0.16477552421430466	-0.0119	0.6019058266767833	0.8488806558318296	0.0301	0.6567138563233377	0.6104714916937448	0.129	0.6730259514655927	0.5191500196746148	0.023	0.6998295323941315	0.4366850365677702	0.2179	0.6650903943153177	0.4199963275985331	0.1804	0.6887803718134368	0.4820935108757365	-0.0119	0.5524738456072356	1.285591936136578	0.0008	0.4268400329080425	1.3961705134716764	0.0655	0.47693733623507173	1.3187590206023623	0.1076	0.7054027189916117	1.3222118752784329	-0.01275	0.8820627592270088	1.2001627561710284	0.0702	0.9067681691350931	1.011671618159119	0.1076	0.44931598313405535	1.224337231306148	-0.01275	0.4188473154712219	0.9961958330895592	0.0702	0.387469660396639	0.7919794951941966	0.1076
94	3.142311365807068	0.6778470946386415	0.8754224046431119	0.0301	0.7615515897768873	0.8812169375608304	0.0301	0.8606493966819186	0.5410288400316134	0.129	0.9333843669235844	0.2210490144361044	0.023	0.9290039314790934	0.20759051533363013	0.2179	0.9902759077681376	0.2006264995678185	0.1804	0.9401676996903844	0.1650213897491873	-0.0119	0.6033069949585035	0.8490637020358709	0.0301	0.6604679786106699	0.6015266134277708	0.129	0.6992866744154309	0.4428712126486355	0.023	0.7373140733480376	0.31133732317093593	0.2179	0.7035286292392321	0.28959401870426504	0.1804	0.7142879596146258	0.41195939861112385	-0.0119	0.5537573737943751	1.2827764894844504	0.0008	0.42176201825745185	1.3926265662751292	0.0655	0.470495923001462	1.3137589484654153	0.1076	0.7083393582549244	1.3179192297384559	-0.01275	0.8826595245901969	1.1944332447658095	0.0702	0.8952853708910986	1.0115647451861303	0.1076	0.4513314374858637	1.2224248094200707	-0.01275	0.42105786004719226	0.9922809227207053	0.0702	0.39116869490920264	0.7917708183831584	0.1076
95	3.1757402101241645	0.678766979847077	0.8737624080577403	0.0301	0.7616399876887796	0.8809070328305968	0.0301	0.8611890999399662	0.5426259699061812	0.129	0.9340542606601655	0.22236737642912868	0.023	0.9295743509950383	0.2078153122800428	0.2179	0.98920099160134	0.2016903797898177	0.1804	0.9411209973183567	0.16453490347322686	-0.0119	0.6049993014871914	0.8493919710114252	0.0301	0.6671379463639003	0.5820145422379837	0.129	0.7317043050681069	0.3314992412090116	0.023	0.7569059551401994	0.2187164038211839	0.2179	0.7256856051884929	0.1953571279995985	0.1804	0.7490048384043091	0.3034424281633336	-0.0119	0.554798809309689	1.2785207290767906	0.0008	0.4133094489654103	1.3872438618792333	0.0655	0.46313198343606876	1.299537870227957	0.1076	0.7102709239481027	1.3138205710265813	-0.01275	0.8818129422927437	1.1865941932774888	0.0702	0.8809203360627521	1.0093431302755007	0.1076	0.4533556010363754	1.2191029241163596	-0.01275	0.4229253257757675	0.987946531500048	0.0702	0.393975094588059	0.7923494635485971	0.1076
96	3.2091690544412605	0.6791426646681049	0.8713363222245929	0.0301	0.762574717087211	0.8777791568544956	0.0301	0.8610033404000177	0.5441722549375989	0.129	0.9344596944108943	0.22386028205882472	0.023	0.9312289652224449	0.20949184792263228	0.2179	0.9889368849980127	0.20304338033103903	0.1804	0.9412588119126616	0.16467681906980225	-0.0119	0.6074543769361562	0.8459456762467338	0.0301	0.6724428471437466	0.565383787510305	0.129	0.7494836680232119	0.2555549228292263	0.023	0.7559175271384532	0.19464521781637822	0.2179	0.7263545800991678	0.1709456057950649	0.1804	0.7688230286351001	0.22717653996113263	-0.0119	0.5533663967702586	1.2742390176655758	0.0008	0.4066135156706598	1.3809715984503073	0.0655	0.45704635245231584	1.2838914713160512	0.1076	0.7114953054021782	1.309367307048507	-0.01275	0.8802464341370145	1.176270421183086	0.0702	0.8641867199036436	1.0062428286604808	0.1076	0.45392330066213327	1.214087623923385	-0.01275	0.4251845130989794	0.9834294670293928	0.0702	0.39622248389189485	0.7936689642656665	0.1076
97	3.242597898758357	0.6804796107148863	0.8661677579578109	0.0301	0.7651169479080825	0.871934543841707	0.0301	0.8610790249858636	0.5448011773365146	0.129	0.9343139167337575	0.22479430697348626	0.023	0.9330849418120792	0.21226630525348583	0.2179	0.9889429883099875	0.20572921702418662	0.1804	0.9404726203642929	0.16670763999793609	-0.0119	0.6111412956817508	0.8385077862468792	0.0301	0.6736158119722597	0.5609322207380181	0.129	0.7496012294225954	0.2386259914016874	0.023	0.7489004514433449	0.20885338591306318	0.2179	0.7199747779485741	0.17934770747604034	0.1804	0.7691692328877137	0.20868520004060304	-0.0119	0.5494118539103361	1.2709008423764285	0.0008	0.4046302277221778	1.375689660351662	0.0655	0.45291285055782265	1.2752578021113334	0.1076	0.7118779594944137	1.3043913964384837	-0.01275	0.877986179799615	1.163534121352448	0.0702	0.8457367320357477	1.0032008744907748	0.1076	0.45251834012058434	1.208393615223299	-0.01275	0.42760201429594913	0.9787165422981162	0.0702	0.3987840243416854	0.794765771473174	0.1076
